<?xml version="1.0" encoding="UTF-8" standalone="no"?>
<svg
   width="200"
   height="150"
   version="1.1"
   viewBox="0 0 200 150"
   id="svg202"
   sodipodi:docname="thumbnail.svg"
   inkscape:version="1.2.2 (b0a8486541, 2022-12-01)"
   xml:space="preserve"
   xmlns:inkscape="http://www.inkscape.org/namespaces/inkscape"
   xmlns:sodipodi="http://sodipodi.sourceforge.net/DTD/sodipodi-0.dtd"
   xmlns:xlink="http://www.w3.org/1999/xlink"
   xmlns="http://www.w3.org/2000/svg"
   xmlns:svg="http://www.w3.org/2000/svg"><defs
     id="defs206"><linearGradient
       inkscape:collect="always"
       id="linearGradient916"><stop
         style="stop-color:#6a58f0;stop-opacity:1;"
         offset="0"
         id="stop912" /><stop
         style="stop-color:#cf54d0;stop-opacity:1;"
         offset="1"
         id="stop914" /></linearGradient><linearGradient
       inkscape:collect="always"
       xlink:href="#linearGradient916"
       id="linearGradient918"
       x1="2"
       y1="12"
       x2="22"
       y2="12"
       gradientUnits="userSpaceOnUse" /><linearGradient
       id="linearGradient918-5"
       x1="2"
       x2="22"
       y1="12"
       y2="12"
       gradientUnits="userSpaceOnUse"><stop
         stop-color="#6a58f0"
         offset="0"
         id="stop13829" /><stop
         stop-color="#cf54d0"
         offset="1"
         id="stop13831" /></linearGradient><linearGradient
       inkscape:collect="always"
       xlink:href="#linearGradient918-5"
       id="linearGradient13873"
       gradientUnits="userSpaceOnUse"
       x1="2"
       y1="12"
       x2="22"
       y2="12" /><linearGradient
       inkscape:collect="always"
       xlink:href="#linearGradient916"
       id="linearGradient13875"
       gradientUnits="userSpaceOnUse"
       x1="2"
       y1="12"
       x2="22"
       y2="12" /><linearGradient
       inkscape:collect="always"
       xlink:href="#linearGradient918-5"
       id="linearGradient13899"
       gradientUnits="userSpaceOnUse"
       x1="2"
       y1="12"
       x2="22"
       y2="12" /><linearGradient
       inkscape:collect="always"
       xlink:href="#linearGradient12555"
       id="linearGradient14482"
       gradientUnits="userSpaceOnUse"
       x1="2"
       y1="12"
       x2="22"
       y2="12" /><linearGradient
       inkscape:collect="always"
       xlink:href="#linearGradient12555"
       id="linearGradient14484"
       gradientUnits="userSpaceOnUse"
       x1="2"
       y1="12"
       x2="22"
       y2="12" /><linearGradient
       inkscape:collect="always"
       xlink:href="#linearGradient12555"
       id="linearGradient14488"
       gradientUnits="userSpaceOnUse"
       x1="2"
       y1="12"
       x2="22"
       y2="12" /><linearGradient
       inkscape:collect="always"
       id="linearGradient12555"><stop
         style="stop-color:#297dff;stop-opacity:1;"
         offset="0"
         id="stop12551" /><stop
         style="stop-color:#31c4b6;stop-opacity:1;"
         offset="1"
         id="stop12553" /></linearGradient><linearGradient
       inkscape:collect="always"
       xlink:href="#linearGradient12555"
       id="linearGradient14560"
       gradientUnits="userSpaceOnUse"
       x1="2"
       y1="12"
       x2="22"
       y2="12" /></defs><sodipodi:namedview
     id="namedview204"
     pagecolor="#ffffff"
     bordercolor="#666666"
     borderopacity="1.0"
     inkscape:pageshadow="2"
     inkscape:pageopacity="0.0"
     inkscape:pagecheckerboard="0"
     showgrid="true"
     inkscape:zoom="3.3752564"
     inkscape:cx="178.20868"
     inkscape:cy="65.180233"
     inkscape:window-width="1920"
     inkscape:window-height="1012"
     inkscape:window-x="0"
     inkscape:window-y="32"
     inkscape:window-maximized="1"
     inkscape:current-layer="svg202"
     inkscape:showpageshadow="2"
     inkscape:deskcolor="#d1d1d1"><inkscape:grid
       type="xygrid"
       id="grid1243" /></sodipodi:namedview><g
     id="thumbnail"
     transform="matrix(3.7794799,0,0,3.7794799,6.0006303,-0.99954477)"><rect
       x="8.99578"
       y="7.9376001"
       width="31.750401"
       height="9.5249996"
       rx="1.3228129"
       ry="1.3228129"
       fill="#f2f2f2"
       stroke-width="0"
       id="rect2" /><rect
       x="10.582782"
       y="9.7876053"
       width="15.875"
       height="5.8207998"
       rx="1.5875"
       ry="1.5875"
       fill="#000000"
       opacity="0.08"
       id="rect4" /><path
       d="m 13.15478,11.4476 v 2.4562 h 0.90227 c 0.281591,0 0.498551,-0.0598 0.65112,-0.17932 0.15257,-0.11955 0.22893,-0.28912 0.22893,-0.50849 0,-0.16673 -0.04693,-0.30521 -0.14004,-0.416 -0.09199,-0.11185 -0.22145,-0.18553 -0.38861,-0.22066 0.13911,-0.0219 0.24446,-0.0776 0.31626,-0.16639 0.0718,-0.0889 0.108,-0.20837 0.108,-0.35864 0,-0.19415 -0.07009,-0.34376 -0.21032,-0.44907 -0.14023,-0.10529 -0.33978,-0.15761 -0.59893,-0.15761 z m 4.3837,0.0904 v 0.52297 h -0.22686 v 0.23513 h 0.22686 v 1.0004 c 0,0.23035 0.04556,0.38923 0.13643,0.47698 0.09087,0.0866 0.25559,0.13022 0.49454,0.13022 h 0.31833 v -0.25321 h -0.31833 c -0.12902,0 -0.21472,-0.0213 -0.25735,-0.0641 -0.04151,-0.0428 -0.06201,-0.13963 -0.06201,-0.28991 v -1.0004 h 0.63769 v -0.23513 h -0.63769 v -0.52297 z m 1.7033,0 v 0.52297 H 19.0144 v 0.23513 h 0.22738 v 1.0004 c 0,0.23035 0.04504,0.38923 0.13591,0.47698 0.09087,0.0866 0.2561,0.13022 0.49506,0.13022 h 0.31781 v -0.25321 h -0.31781 c -0.12901,0 -0.21472,-0.0213 -0.25735,-0.0641 -0.04151,-0.0428 -0.06253,-0.13963 -0.06253,-0.28991 v -1.0004 h 0.63769 v -0.23513 h -0.63769 v -0.52297 z m -5.7469,0.18242 h 0.50333 c 0.16604,0 0.28923,0.0306 0.37,0.092 0.0819,0.0614 0.12299,0.15407 0.12299,0.27802 0,0.12504 -0.04109,0.21866 -0.12299,0.28008 -0.08077,0.0603 -0.20397,0.0904 -0.37,0.0904 h -0.503329 z m 8.185,0.29611 c -0.27037,0 -0.48244,0.0857 -0.63614,0.25683 -0.15257,0.17111 -0.22893,0.40781 -0.22893,0.71055 0,0.30164 0.07635,0.53886 0.22893,0.71107 0.1537,0.17111 0.36577,0.25631 0.63614,0.25631 0.26925,0 0.48089,-0.0852 0.63459,-0.25631 0.1537,-0.17221 0.23048,-0.40943 0.23048,-0.71107 0,-0.30274 -0.07678,-0.53944 -0.23048,-0.71055 -0.1537,-0.17111 -0.36534,-0.25683 -0.63459,-0.25683 z m 2.1239,0 c -0.13126,0 -0.24733,0.0273 -0.3483,0.0822 -0.09984,0.0548 -0.18692,0.13778 -0.26096,0.24857 v -0.28629 h -0.31109 v 1.8428 h 0.31109 v -1.0413 c 0,-0.17988 0.04821,-0.32212 0.14469,-0.42633 0.09648,-0.1042 0.22817,-0.15606 0.395321,-0.15606 0.139109,0 0.2436,0.043 0.31316,0.12971 0.06955,0.0867 0.104389,0.2173 0.104389,0.3917 v 1.1023 h 0.30954 v -1.1121 c 0,-0.25447 -0.05533,-0.44721 -0.1664,-0.57774 -0.11106,-0.13162 -0.27492,-0.1974 -0.49144,-0.1974 z m -8.2775,0.0444 v 1.1157 c 0,0.25338 0.05576,0.44561 0.167951,0.57723 0.112189,0.13162 0.27647,0.1974 0.492989,0.1974 0.13126,0 0.24648,-0.0269 0.3452,-0.0806 0.09985,-0.0548 0.18735,-0.13824 0.26252,-0.25012 v 0.28319 h 0.30954 v -1.8428 h -0.30954 v 1.0449 c 0,0.17988 -0.04864,0.32161 -0.14624,0.42581 -0.09648,0.10421 -0.22868,0.15658 -0.39584,0.15658 -0.13911,0 -0.24309,-0.0436 -0.31264,-0.13022 -0.06956,-0.0878 -0.104389,-0.21886 -0.104389,-0.39326 v -1.1038 z m 6.1536,0.21239 c 0.16491,0 0.29574,0.0639 0.39222,0.19224 0.09648,0.12724 0.144691,0.30004 0.144691,0.51831 0,0.21938 -0.04821,0.39263 -0.144691,0.51987 -0.09648,0.12723 -0.227309,0.1912 -0.39222,0.1912 -0.16716,0 -0.29884,-0.063 -0.39532,-0.18914 -0.09536,-0.12723 -0.14314,-0.30146 -0.14314,-0.52193 0,-0.22047 0.04821,-0.39372 0.14469,-0.51986 0.09648,-0.12725 0.22774,-0.19069 0.39377,-0.19069 z m -8.185,0.45734 h 0.54519 c 0.182861,0 0.31815,0.0366 0.405661,0.11007 0.08863,0.0724 0.132809,0.18543 0.132809,0.33899 0,0.15247 -0.04418,0.26597 -0.132809,0.34055 -0.08751,0.0735 -0.2228,0.11007 -0.405661,0.11007 h -0.545189 z"
       fill="#000000"
       opacity="0.65"
       id="path6" /><g
       id="g13827"
       transform="matrix(0.26458667,0,0,0.26458667,27.065288,9.5229657)"><path
         d="M 12,2 C 6.4771525,2 2,6.4771525 2,12 2,17.522847 6.4771525,22 12,22 17.522847,22 22,17.522847 22,12 22,6.4771525 17.522847,2 12,2 Z"
         id="path2"
         style="fill:url(#linearGradient918);fill-opacity:1" /><path
         d="m 17.6289,7.9629 v 0.00195 c 0.12781,-4e-6 0.25558,0.04855 0.35352,0.14648 0.19587,0.19587 0.19587,0.51116 0,0.70703 l -7.0723,7.0723 c -0.02449,0.02449 -0.05032,0.04613 -0.07813,0.06445 -0.02772,0.01839 -0.05586,0.03268 -0.08594,0.04492 -0.03009,0.01224 -0.06225,0.01927 -0.09375,0.02539 -0.03149,0.0061 -0.06374,0.01172 -0.0957,0.01172 -0.03195,0 -0.06226,-0.0055 -0.09375,-0.01172 -0.03149,-0.0061 -0.06367,-0.01315 -0.09375,-0.02539 -0.03009,-0.01224 -0.05819,-0.02656 -0.08594,-0.04492 -0.01389,-0.0092 -0.02787,-0.02051 -0.04101,-0.03125 -0.01312,-0.01071 -0.02682,-0.02292 -0.03906,-0.03516 l -4.1855,-4.1875 c -0.19587,-0.19587 -0.19587,-0.51116 0,-0.70703 0.19587,-0.19587 0.51116,-0.19587 0.70703,0 l 3.832,3.834 6.7188,-6.7188 c 0.09793,-0.09793 0.22571,-0.14648 0.35352,-0.14648 z"
         fill="#3c84f7"
         id="path333"
         sodipodi:nodetypes="cccsscscscsccccsccscc"
         style="fill:#ffffff" /></g><g
       id="g13849"
       transform="matrix(0.26458667,0,0,0.26458667,33.493703,9.5229657)"><path
         d="M 12,2 C 6.4772,2 2,6.4772 2,12 2,17.5228 6.4772,22 12,22 17.5228,22 22,17.5228 22,12 22,6.4772 17.5228,2 12,2 Z"
         id="path13836"
         style="fill:url(#linearGradient13899)" /><path
         d="m 12,10 c 1.1046,0 2,0.89543 2,2 0,1.10457 -0.89543,2 -2,2 -1.10457,0 -2,-0.89543 -2,-2 0,-1.10457 0.89543,-2 2,-2 z"
         fill="#ffffff"
         id="path13838" /></g></g><g
     id="thumbnail-Dark"
     transform="matrix(3.7794799,0,0,3.7794799,6.0006303,0.99119616)"><rect
       x="8.99578"
       y="22.22761"
       width="31.750401"
       height="9.5249996"
       rx="1.3229333"
       ry="1.3229333"
       fill="#2c2c2c"
       id="rect13"
       style="stroke-width:1.00001;fill:#22262c;fill-opacity:1" /><rect
       x="10.582782"
       y="24.077616"
       width="15.875"
       height="5.8207998"
       rx="1.5875"
       ry="1.5875"
       fill="#ffffff"
       opacity="0.1"
       id="rect15" /><path
       d="m 13.15478,25.7376 v 2.4562 h 0.90227 c 0.281591,0 0.498551,-0.0598 0.65112,-0.17932 0.15257,-0.11955 0.22893,-0.28912 0.22893,-0.50849 0,-0.16673 -0.04693,-0.30521 -0.14004,-0.416 -0.09199,-0.11185 -0.22145,-0.18553 -0.38861,-0.22066 0.13911,-0.0219 0.24446,-0.0775 0.31626,-0.16639 0.0718,-0.0889 0.108,-0.20837 0.108,-0.35864 0,-0.19415 -0.07009,-0.34376 -0.21032,-0.44907 -0.14023,-0.10529 -0.33978,-0.15761 -0.59893,-0.15761 z m 4.3837,0.0904 v 0.52297 h -0.22686 v 0.23513 h 0.22686 v 1.0004 c 0,0.23035 0.04556,0.38923 0.13643,0.47698 0.09087,0.0866 0.25559,0.13022 0.49454,0.13022 h 0.31833 v -0.25321 h -0.31833 c -0.12902,0 -0.21472,-0.0213 -0.25735,-0.0641 -0.04151,-0.0428 -0.06201,-0.13963 -0.06201,-0.28991 v -1.0004 h 0.63769 v -0.23513 h -0.63769 v -0.52297 z m 1.7033,0 v 0.52297 H 19.0144 v 0.23513 h 0.22738 v 1.0004 c 0,0.23035 0.04504,0.38923 0.13591,0.47698 0.09087,0.0866 0.2561,0.13022 0.49506,0.13022 h 0.31781 v -0.25321 h -0.31781 c -0.12901,0 -0.21472,-0.0213 -0.25735,-0.0641 -0.04151,-0.0428 -0.06253,-0.13963 -0.06253,-0.28991 v -1.0004 h 0.63769 v -0.23513 h -0.63769 v -0.52297 z m -5.7469,0.18242 h 0.50333 c 0.16604,0 0.28923,0.0306 0.37,0.092 0.0819,0.0614 0.12299,0.15407 0.12299,0.27802 0,0.12504 -0.04109,0.21866 -0.12299,0.28008 -0.08077,0.0603 -0.20397,0.0904 -0.37,0.0904 h -0.503329 z m 8.185,0.29611 c -0.27037,0 -0.48244,0.0857 -0.63614,0.25683 -0.15257,0.17111 -0.22893,0.40781 -0.22893,0.71055 0,0.30164 0.07635,0.53886 0.22893,0.71107 0.1537,0.17111 0.36577,0.25631 0.63614,0.25631 0.26925,0 0.48089,-0.0852 0.63459,-0.25631 0.1537,-0.17221 0.23048,-0.40943 0.23048,-0.71107 0,-0.30274 -0.07678,-0.53944 -0.23048,-0.71055 -0.1537,-0.17111 -0.36534,-0.25683 -0.63459,-0.25683 z m 2.1239,0 c -0.13126,0 -0.24733,0.0273 -0.3483,0.0822 -0.09984,0.0548 -0.18692,0.13778 -0.26096,0.24857 v -0.28629 h -0.31109 v 1.8428 h 0.31109 v -1.0413 c 0,-0.17988 0.04821,-0.32212 0.14469,-0.42633 0.09648,-0.1042 0.22817,-0.15606 0.395321,-0.15606 0.139109,0 0.2436,0.043 0.31316,0.12971 0.06955,0.0867 0.104389,0.2173 0.104389,0.3917 v 1.1023 h 0.30954 v -1.1121 c 0,-0.25447 -0.05533,-0.44721 -0.1664,-0.57774 -0.11106,-0.13162 -0.27492,-0.1974 -0.49144,-0.1974 z m -8.2775,0.0444 v 1.1157 c 0,0.25338 0.05576,0.44561 0.167951,0.57723 0.112189,0.13162 0.27647,0.1974 0.492989,0.1974 0.13126,0 0.24648,-0.0269 0.3452,-0.0806 0.09985,-0.0548 0.18735,-0.13824 0.26252,-0.25012 v 0.28319 h 0.30954 v -1.8428 h -0.30954 v 1.0449 c 0,0.17988 -0.04864,0.32161 -0.14624,0.42581 -0.09648,0.10421 -0.22868,0.15658 -0.39584,0.15658 -0.13911,0 -0.24309,-0.0436 -0.31264,-0.13022 -0.06956,-0.0878 -0.104389,-0.21886 -0.104389,-0.39326 v -1.1038 z m 6.1536,0.21239 c 0.16491,0 0.29574,0.0639 0.39222,0.19224 0.09648,0.12724 0.144691,0.30004 0.144691,0.51831 0,0.21938 -0.04821,0.39263 -0.144691,0.51987 -0.09648,0.12723 -0.227309,0.1912 -0.39222,0.1912 -0.16716,0 -0.29884,-0.063 -0.39532,-0.18914 -0.09536,-0.12723 -0.14314,-0.30146 -0.14314,-0.52193 0,-0.22047 0.04821,-0.39372 0.14469,-0.51986 0.09648,-0.12725 0.22774,-0.19069 0.39377,-0.19069 z m -8.185,0.45734 h 0.54519 c 0.182861,0 0.31815,0.0366 0.405661,0.11007 0.08863,0.0724 0.132809,0.18543 0.132809,0.33899 0,0.15247 -0.04418,0.26597 -0.132809,0.34055 -0.08751,0.0735 -0.2228,0.11007 -0.405661,0.11007 h -0.545189 z"
       fill="#ffffff"
       opacity="0.65"
       id="path17" /><g
       id="g13865"
       transform="matrix(0.26458667,0,0,0.26458667,27.065288,23.815069)"><path
         d="M 12,2 C 6.4771525,2 2,6.4771525 2,12 2,17.522847 6.4771525,22 12,22 17.522847,22 22,17.522847 22,12 22,6.4771525 17.522847,2 12,2 Z"
         id="path13861"
         style="fill:url(#linearGradient13875);fill-opacity:1" /><path
         d="m 17.6289,7.9629 v 0.00195 c 0.12781,-4e-6 0.25558,0.04855 0.35352,0.14648 0.19587,0.19587 0.19587,0.51116 0,0.70703 l -7.0723,7.0723 c -0.02449,0.02449 -0.05032,0.04613 -0.07813,0.06445 -0.02772,0.01839 -0.05586,0.03268 -0.08594,0.04492 -0.03009,0.01224 -0.06225,0.01927 -0.09375,0.02539 -0.03149,0.0061 -0.06374,0.01172 -0.0957,0.01172 -0.03195,0 -0.06226,-0.0055 -0.09375,-0.01172 -0.03149,-0.0061 -0.06367,-0.01315 -0.09375,-0.02539 -0.03009,-0.01224 -0.05819,-0.02656 -0.08594,-0.04492 -0.01389,-0.0092 -0.02787,-0.02051 -0.04101,-0.03125 -0.01312,-0.01071 -0.02682,-0.02292 -0.03906,-0.03516 l -4.1855,-4.1875 c -0.19587,-0.19587 -0.19587,-0.51116 0,-0.70703 0.19587,-0.19587 0.51116,-0.19587 0.70703,0 l 3.832,3.834 6.7188,-6.7188 c 0.09793,-0.09793 0.22571,-0.14648 0.35352,-0.14648 z"
         fill="#3c84f7"
         id="path13863"
         sodipodi:nodetypes="cccsscscscsccccsccscc"
         style="fill:#ffffff" /></g><g
       id="g13871"
       transform="matrix(0.26458667,0,0,0.26458667,33.493703,23.815069)"><path
         d="M 12,2 C 6.4772,2 2,6.4772 2,12 2,17.5228 6.4772,22 12,22 17.5228,22 22,17.5228 22,12 22,6.4772 17.5228,2 12,2 Z"
         id="path13867"
         style="fill:url(#linearGradient13873)" /><path
         d="m 12,10 c 1.1046,0 2,0.89543 2,2 0,1.10457 -0.89543,2 -2,2 -1.10457,0 -2,-0.89543 -2,-2 0,-1.10457 0.89543,-2 2,-2 z"
         fill="#ffffff"
         id="path13869" /></g></g><g
     id="thumbnail-Sea"
     transform="matrix(3.7794799,0,0,3.7794799,206.00063,-0.99954477)"><rect
       x="8.99578"
       y="7.9376001"
       width="31.750401"
       height="9.5249996"
       rx="1.3228129"
       ry="1.3228129"
       fill="#f2f2f2"
       stroke-width="0"
       id="rect14442" /><rect
       x="10.582782"
       y="9.7876053"
       width="15.875"
       height="5.8207998"
       rx="1.5875"
       ry="1.5875"
       fill="#000000"
       opacity="0.08"
       id="rect14444" /><path
       d="m 13.15478,11.4476 v 2.4562 h 0.90227 c 0.281591,0 0.498551,-0.0598 0.65112,-0.17932 0.15257,-0.11955 0.22893,-0.28912 0.22893,-0.50849 0,-0.16673 -0.04693,-0.30521 -0.14004,-0.416 -0.09199,-0.11185 -0.22145,-0.18553 -0.38861,-0.22066 0.13911,-0.0219 0.24446,-0.0776 0.31626,-0.16639 0.0718,-0.0889 0.108,-0.20837 0.108,-0.35864 0,-0.19415 -0.07009,-0.34376 -0.21032,-0.44907 -0.14023,-0.10529 -0.33978,-0.15761 -0.59893,-0.15761 z m 4.3837,0.0904 v 0.52297 h -0.22686 v 0.23513 h 0.22686 v 1.0004 c 0,0.23035 0.04556,0.38923 0.13643,0.47698 0.09087,0.0866 0.25559,0.13022 0.49454,0.13022 h 0.31833 v -0.25321 h -0.31833 c -0.12902,0 -0.21472,-0.0213 -0.25735,-0.0641 -0.04151,-0.0428 -0.06201,-0.13963 -0.06201,-0.28991 v -1.0004 h 0.63769 v -0.23513 h -0.63769 v -0.52297 z m 1.7033,0 v 0.52297 H 19.0144 v 0.23513 h 0.22738 v 1.0004 c 0,0.23035 0.04504,0.38923 0.13591,0.47698 0.09087,0.0866 0.2561,0.13022 0.49506,0.13022 h 0.31781 v -0.25321 h -0.31781 c -0.12901,0 -0.21472,-0.0213 -0.25735,-0.0641 -0.04151,-0.0428 -0.06253,-0.13963 -0.06253,-0.28991 v -1.0004 h 0.63769 v -0.23513 h -0.63769 v -0.52297 z m -5.7469,0.18242 h 0.50333 c 0.16604,0 0.28923,0.0306 0.37,0.092 0.0819,0.0614 0.12299,0.15407 0.12299,0.27802 0,0.12504 -0.04109,0.21866 -0.12299,0.28008 -0.08077,0.0603 -0.20397,0.0904 -0.37,0.0904 h -0.503329 z m 8.185,0.29611 c -0.27037,0 -0.48244,0.0857 -0.63614,0.25683 -0.15257,0.17111 -0.22893,0.40781 -0.22893,0.71055 0,0.30164 0.07635,0.53886 0.22893,0.71107 0.1537,0.17111 0.36577,0.25631 0.63614,0.25631 0.26925,0 0.48089,-0.0852 0.63459,-0.25631 0.1537,-0.17221 0.23048,-0.40943 0.23048,-0.71107 0,-0.30274 -0.07678,-0.53944 -0.23048,-0.71055 -0.1537,-0.17111 -0.36534,-0.25683 -0.63459,-0.25683 z m 2.1239,0 c -0.13126,0 -0.24733,0.0273 -0.3483,0.0822 -0.09984,0.0548 -0.18692,0.13778 -0.26096,0.24857 v -0.28629 h -0.31109 v 1.8428 h 0.31109 v -1.0413 c 0,-0.17988 0.04821,-0.32212 0.14469,-0.42633 0.09648,-0.1042 0.22817,-0.15606 0.395321,-0.15606 0.139109,0 0.2436,0.043 0.31316,0.12971 0.06955,0.0867 0.104389,0.2173 0.104389,0.3917 v 1.1023 h 0.30954 v -1.1121 c 0,-0.25447 -0.05533,-0.44721 -0.1664,-0.57774 -0.11106,-0.13162 -0.27492,-0.1974 -0.49144,-0.1974 z m -8.2775,0.0444 v 1.1157 c 0,0.25338 0.05576,0.44561 0.167951,0.57723 0.112189,0.13162 0.27647,0.1974 0.492989,0.1974 0.13126,0 0.24648,-0.0269 0.3452,-0.0806 0.09985,-0.0548 0.18735,-0.13824 0.26252,-0.25012 v 0.28319 h 0.30954 v -1.8428 h -0.30954 v 1.0449 c 0,0.17988 -0.04864,0.32161 -0.14624,0.42581 -0.09648,0.10421 -0.22868,0.15658 -0.39584,0.15658 -0.13911,0 -0.24309,-0.0436 -0.31264,-0.13022 -0.06956,-0.0878 -0.104389,-0.21886 -0.104389,-0.39326 v -1.1038 z m 6.1536,0.21239 c 0.16491,0 0.29574,0.0639 0.39222,0.19224 0.09648,0.12724 0.144691,0.30004 0.144691,0.51831 0,0.21938 -0.04821,0.39263 -0.144691,0.51987 -0.09648,0.12723 -0.227309,0.1912 -0.39222,0.1912 -0.16716,0 -0.29884,-0.063 -0.39532,-0.18914 -0.09536,-0.12723 -0.14314,-0.30146 -0.14314,-0.52193 0,-0.22047 0.04821,-0.39372 0.14469,-0.51986 0.09648,-0.12725 0.22774,-0.19069 0.39377,-0.19069 z m -8.185,0.45734 h 0.54519 c 0.182861,0 0.31815,0.0366 0.405661,0.11007 0.08863,0.0724 0.132809,0.18543 0.132809,0.33899 0,0.15247 -0.04418,0.26597 -0.132809,0.34055 -0.08751,0.0735 -0.2228,0.11007 -0.405661,0.11007 h -0.545189 z"
       fill="#000000"
       opacity="0.65"
       id="path14446" /><g
       id="g14452"
       transform="matrix(0.26458667,0,0,0.26458667,27.065288,9.5229657)"><path
         d="M 12,2 C 6.4771525,2 2,6.4771525 2,12 2,17.522847 6.4771525,22 12,22 17.522847,22 22,17.522847 22,12 22,6.4771525 17.522847,2 12,2 Z"
         id="path14448"
         style="fill:url(#linearGradient14560);fill-opacity:1.0" /><path
         d="m 17.6289,7.9629 v 0.00195 c 0.12781,-4e-6 0.25558,0.04855 0.35352,0.14648 0.19587,0.19587 0.19587,0.51116 0,0.70703 l -7.0723,7.0723 c -0.02449,0.02449 -0.05032,0.04613 -0.07813,0.06445 -0.02772,0.01839 -0.05586,0.03268 -0.08594,0.04492 -0.03009,0.01224 -0.06225,0.01927 -0.09375,0.02539 -0.03149,0.0061 -0.06374,0.01172 -0.0957,0.01172 -0.03195,0 -0.06226,-0.0055 -0.09375,-0.01172 -0.03149,-0.0061 -0.06367,-0.01315 -0.09375,-0.02539 -0.03009,-0.01224 -0.05819,-0.02656 -0.08594,-0.04492 -0.01389,-0.0092 -0.02787,-0.02051 -0.04101,-0.03125 -0.01312,-0.01071 -0.02682,-0.02292 -0.03906,-0.03516 l -4.1855,-4.1875 c -0.19587,-0.19587 -0.19587,-0.51116 0,-0.70703 0.19587,-0.19587 0.51116,-0.19587 0.70703,0 l 3.832,3.834 6.7188,-6.7188 c 0.09793,-0.09793 0.22571,-0.14648 0.35352,-0.14648 z"
         fill="#3c84f7"
         id="path14450"
         sodipodi:nodetypes="cccsscscscsccccsccscc"
         style="fill:#ffffff" /></g><g
       id="g14458"
       transform="matrix(0.26458667,0,0,0.26458667,33.493703,9.5229657)"><path
         d="M 12,2 C 6.4772,2 2,6.4772 2,12 2,17.5228 6.4772,22 12,22 17.5228,22 22,17.5228 22,12 22,6.4772 17.5228,2 12,2 Z"
         id="path14454"
         style="fill:url(#linearGradient14488);fill-opacity:1.0" /><path
         d="m 12,10 c 1.1046,0 2,0.89543 2,2 0,1.10457 -0.89543,2 -2,2 -1.10457,0 -2,-0.89543 -2,-2 0,-1.10457 0.89543,-2 2,-2 z"
         fill="#ffffff"
         id="path14456" /></g></g><g
     id="thumbnail-Sea-Dark"
     transform="matrix(3.7794799,0,0,3.7794799,206.00063,0.99119616)"><rect
       x="8.99578"
       y="22.22761"
       width="31.750401"
       height="9.5249996"
       rx="1.3229333"
       ry="1.3229333"
       fill="#2c2c2c"
       id="rect14462"
       style="fill:#22262c;fill-opacity:1;stroke-width:1.00001" /><rect
       x="10.582782"
       y="24.077616"
       width="15.875"
       height="5.8207998"
       rx="1.5875"
       ry="1.5875"
       fill="#ffffff"
       opacity="0.1"
       id="rect14464" /><path
       d="m 13.15478,25.7376 v 2.4562 h 0.90227 c 0.281591,0 0.498551,-0.0598 0.65112,-0.17932 0.15257,-0.11955 0.22893,-0.28912 0.22893,-0.50849 0,-0.16673 -0.04693,-0.30521 -0.14004,-0.416 -0.09199,-0.11185 -0.22145,-0.18553 -0.38861,-0.22066 0.13911,-0.0219 0.24446,-0.0775 0.31626,-0.16639 0.0718,-0.0889 0.108,-0.20837 0.108,-0.35864 0,-0.19415 -0.07009,-0.34376 -0.21032,-0.44907 -0.14023,-0.10529 -0.33978,-0.15761 -0.59893,-0.15761 z m 4.3837,0.0904 v 0.52297 h -0.22686 v 0.23513 h 0.22686 v 1.0004 c 0,0.23035 0.04556,0.38923 0.13643,0.47698 0.09087,0.0866 0.25559,0.13022 0.49454,0.13022 h 0.31833 v -0.25321 h -0.31833 c -0.12902,0 -0.21472,-0.0213 -0.25735,-0.0641 -0.04151,-0.0428 -0.06201,-0.13963 -0.06201,-0.28991 v -1.0004 h 0.63769 v -0.23513 h -0.63769 v -0.52297 z m 1.7033,0 v 0.52297 H 19.0144 v 0.23513 h 0.22738 v 1.0004 c 0,0.23035 0.04504,0.38923 0.13591,0.47698 0.09087,0.0866 0.2561,0.13022 0.49506,0.13022 h 0.31781 v -0.25321 h -0.31781 c -0.12901,0 -0.21472,-0.0213 -0.25735,-0.0641 -0.04151,-0.0428 -0.06253,-0.13963 -0.06253,-0.28991 v -1.0004 h 0.63769 v -0.23513 h -0.63769 v -0.52297 z m -5.7469,0.18242 h 0.50333 c 0.16604,0 0.28923,0.0306 0.37,0.092 0.0819,0.0614 0.12299,0.15407 0.12299,0.27802 0,0.12504 -0.04109,0.21866 -0.12299,0.28008 -0.08077,0.0603 -0.20397,0.0904 -0.37,0.0904 h -0.503329 z m 8.185,0.29611 c -0.27037,0 -0.48244,0.0857 -0.63614,0.25683 -0.15257,0.17111 -0.22893,0.40781 -0.22893,0.71055 0,0.30164 0.07635,0.53886 0.22893,0.71107 0.1537,0.17111 0.36577,0.25631 0.63614,0.25631 0.26925,0 0.48089,-0.0852 0.63459,-0.25631 0.1537,-0.17221 0.23048,-0.40943 0.23048,-0.71107 0,-0.30274 -0.07678,-0.53944 -0.23048,-0.71055 -0.1537,-0.17111 -0.36534,-0.25683 -0.63459,-0.25683 z m 2.1239,0 c -0.13126,0 -0.24733,0.0273 -0.3483,0.0822 -0.09984,0.0548 -0.18692,0.13778 -0.26096,0.24857 v -0.28629 h -0.31109 v 1.8428 h 0.31109 v -1.0413 c 0,-0.17988 0.04821,-0.32212 0.14469,-0.42633 0.09648,-0.1042 0.22817,-0.15606 0.395321,-0.15606 0.139109,0 0.2436,0.043 0.31316,0.12971 0.06955,0.0867 0.104389,0.2173 0.104389,0.3917 v 1.1023 h 0.30954 v -1.1121 c 0,-0.25447 -0.05533,-0.44721 -0.1664,-0.57774 -0.11106,-0.13162 -0.27492,-0.1974 -0.49144,-0.1974 z m -8.2775,0.0444 v 1.1157 c 0,0.25338 0.05576,0.44561 0.167951,0.57723 0.112189,0.13162 0.27647,0.1974 0.492989,0.1974 0.13126,0 0.24648,-0.0269 0.3452,-0.0806 0.09985,-0.0548 0.18735,-0.13824 0.26252,-0.25012 v 0.28319 h 0.30954 v -1.8428 h -0.30954 v 1.0449 c 0,0.17988 -0.04864,0.32161 -0.14624,0.42581 -0.09648,0.10421 -0.22868,0.15658 -0.39584,0.15658 -0.13911,0 -0.24309,-0.0436 -0.31264,-0.13022 -0.06956,-0.0878 -0.104389,-0.21886 -0.104389,-0.39326 v -1.1038 z m 6.1536,0.21239 c 0.16491,0 0.29574,0.0639 0.39222,0.19224 0.09648,0.12724 0.144691,0.30004 0.144691,0.51831 0,0.21938 -0.04821,0.39263 -0.144691,0.51987 -0.09648,0.12723 -0.227309,0.1912 -0.39222,0.1912 -0.16716,0 -0.29884,-0.063 -0.39532,-0.18914 -0.09536,-0.12723 -0.14314,-0.30146 -0.14314,-0.52193 0,-0.22047 0.04821,-0.39372 0.14469,-0.51986 0.09648,-0.12725 0.22774,-0.19069 0.39377,-0.19069 z m -8.185,0.45734 h 0.54519 c 0.182861,0 0.31815,0.0366 0.405661,0.11007 0.08863,0.0724 0.132809,0.18543 0.132809,0.33899 0,0.15247 -0.04418,0.26597 -0.132809,0.34055 -0.08751,0.0735 -0.2228,0.11007 -0.405661,0.11007 h -0.545189 z"
       fill="#ffffff"
       opacity="0.65"
       id="path14466" /><g
       id="g14472"
       transform="matrix(0.26458667,0,0,0.26458667,27.065288,23.815069)"><path
         d="M 12,2 C 6.4771525,2 2,6.4771525 2,12 2,17.522847 6.4771525,22 12,22 17.522847,22 22,17.522847 22,12 22,6.4771525 17.522847,2 12,2 Z"
         id="path14468"
         style="fill:url(#linearGradient14482);fill-opacity:1.0" /><path
         d="m 17.6289,7.9629 v 0.00195 c 0.12781,-4e-6 0.25558,0.04855 0.35352,0.14648 0.19587,0.19587 0.19587,0.51116 0,0.70703 l -7.0723,7.0723 c -0.02449,0.02449 -0.05032,0.04613 -0.07813,0.06445 -0.02772,0.01839 -0.05586,0.03268 -0.08594,0.04492 -0.03009,0.01224 -0.06225,0.01927 -0.09375,0.02539 -0.03149,0.0061 -0.06374,0.01172 -0.0957,0.01172 -0.03195,0 -0.06226,-0.0055 -0.09375,-0.01172 -0.03149,-0.0061 -0.06367,-0.01315 -0.09375,-0.02539 -0.03009,-0.01224 -0.05819,-0.02656 -0.08594,-0.04492 -0.01389,-0.0092 -0.02787,-0.02051 -0.04101,-0.03125 -0.01312,-0.01071 -0.02682,-0.02292 -0.03906,-0.03516 l -4.1855,-4.1875 c -0.19587,-0.19587 -0.19587,-0.51116 0,-0.70703 0.19587,-0.19587 0.51116,-0.19587 0.70703,0 l 3.832,3.834 6.7188,-6.7188 c 0.09793,-0.09793 0.22571,-0.14648 0.35352,-0.14648 z"
         fill="#3c84f7"
         id="path14470"
         sodipodi:nodetypes="cccsscscscsccccsccscc"
         style="fill:#ffffff" /></g><g
       id="g14478"
       transform="matrix(0.26458667,0,0,0.26458667,33.493703,23.815069)"><path
         d="M 12,2 C 6.4772,2 2,6.4772 2,12 2,17.5228 6.4772,22 12,22 17.5228,22 22,17.5228 22,12 22,6.4772 17.5228,2 12,2 Z"
         id="path14474"
         style="fill:url(#linearGradient14484);fill-opacity:1.0" /><path
         d="m 12,10 c 1.1046,0 2,0.89543 2,2 0,1.10457 -0.89543,2 -2,2 -1.10457,0 -2,-0.89543 -2,-2 0,-1.10457 0.89543,-2 2,-2 z"
         fill="#ffffff"
         id="path14476" /></g></g></svg>
