<svg xmlns="http://www.w3.org/2000/svg" width="48" height="48"><path d="M24 6a18 18 0 0 0-10.495 3.404l4.088 4.088A12.318 12.318 0 0 1 24 11.682c6.803 0 12.318 5.515 12.318 12.318a12.318 12.318 0 0 1-1.814 6.403L38.6 34.5A18.001 18.001 0 0 0 42 24c0-9.941-8.059-18-18-18zM9.4 13.5A18 18 0 0 0 6 24c0 9.94 8.06 18 18 18a18 18 0 0 0 10.495-3.404l-4.088-4.088A12.317 12.317 0 0 1 24 36.318c-6.803 0-12.318-5.515-12.318-12.318.006-2.26.633-4.476 1.814-6.403zm14.597 4.77a5.73 5.73 0 0 0-5.73 5.73 5.73 5.73 0 0 0 5.73 5.73 5.73 5.73 0 0 0 5.73-5.73 5.73 5.73 0 0 0-5.73-5.73z" style="fill:#fff;stroke-width:.171045;opacity:.8"/></svg>