<?xml version="1.0" encoding="UTF-8" standalone="no"?>
<svg
   width="1920"
   height="1920"
   version="1.1"
   viewBox="0 0 1920 1920"
   id="svg70"
   sodipodi:docname="wallpaper-wave.svg"
   inkscape:version="1.2.2 (b0a8486541, 2022-12-01)"
   xmlns:inkscape="http://www.inkscape.org/namespaces/inkscape"
   xmlns:sodipodi="http://sodipodi.sourceforge.net/DTD/sodipodi-0.dtd"
   xmlns="http://www.w3.org/2000/svg"
   xmlns:svg="http://www.w3.org/2000/svg">
  <sodipodi:namedview
     id="namedview72"
     pagecolor="#ffffff"
     bordercolor="#666666"
     borderopacity="1.0"
     inkscape:showpageshadow="2"
     inkscape:pageopacity="0.0"
     inkscape:pagecheckerboard="0"
     inkscape:deskcolor="#d1d1d1"
     showgrid="false"
     inkscape:zoom="0.061458335"
     inkscape:cx="-211.52542"
     inkscape:cy="2196.6101"
     inkscape:window-width="1920"
     inkscape:window-height="1012"
     inkscape:window-x="0"
     inkscape:window-y="32"
     inkscape:window-maximized="1"
     inkscape:current-layer="svg70" />
  <defs
     id="defs5">
    <clipPath
       id="clipPath6928">
      <rect
         y="-420"
         width="1920"
         height="1920"
         rx="1.049"
         ry="1.049"
         fill="#cfdac2"
         stop-color="#000000"
         stroke-width="1.049"
         style="paint-order:stroke fill markers"
         id="rect2" />
    </clipPath>
  </defs>
  <g
     id="Light"
     transform="translate(0,420)"
     clip-path="url(#clipPath6928)">
    <rect
       x="-49.826"
       y="-1336.7"
       width="1984.1"
       height="3300.1"
       rx="1"
       ry="1"
       fill="#d7d4ed"
       stop-color="#000000"
       style="paint-order:stroke fill markers"
       id="rect7" />
    <path
       d="m-42.401-326.07s542.55 89.49 763.43 263.66c225.8 178.04 266.7 418.97 458.54 506.4 197.28 89.92 418.25 3.2475 507.71-13.217 89.463-16.464 247.06 178.55 247.06 178.55l16.699 778.39-2042.4 130.89z"
       fill="#a496f8"
       id="path9" />
    <path
       d="m-27.581-5.0304s577.43 123.09 752.62 284.8 340.04 541.1 603.08 611.22c263.05 70.119 160.4 360.91 160.4 360.91l-1190.1 133.02h-377.58z"
       fill="#8574f6"
       id="path11" />
    <path
       d="m-29.678 340.48s485.87 69.46 721.02 250.2 407.47 543.93 407.47 543.93l-1148.2-11.271z"
       fill="#6a58f0"
       id="path13" />
    <path
       d="m-112.15 489.69s123.16 152.77 259.56 193.44c151.65 45.208 299.38 89.401 407.9 200.43 90.013 92.089 139.18 392.48 139.18 392.48l-799.08-32.477z"
       fill="#563eea"
       id="path15" />
    <path
       d="m-34.041 1068.5s73.296-147.49 251-234.35c221.62-108.32 410.98-50.905 652.52-86.789 501.28-74.469 528.19-272.77 757.68-324.8 169.38-38.399 397.1 147.53 397.1 147.53l-1.9761 759.67-2072.9-52.575z"
       fill="#e16fe2"
       id="path17" />
    <path
       d="m-24.589 1214s110.06-170.4 324.92-224.48c214.85-54.081 509.61-50.676 758.38-156.99 197.55-84.423 373.25-276.25 545.09-295.05 171.84-18.803 397.25 57.642 397.25 57.642l-16.524 875.37-2007.3 100.56z"
       fill="#ce55cf"
       id="path19" />
    <path
       d="m-20.061 1346.6s127.17-140.3 354.57-187.37 401.8-43.221 583.39-142.36c181.59-99.14 344.15-252.13 569.34-321.14 221.92-68.002 354.69-36.663 438.01-83.875 83.315-47.212 53.353 567.69 53.353 567.69l17.884 557.01-2039-171.73z"
       fill="#c13dc2"
       id="path21" />
    <path
       d="m-3.2666 1520.1s69.398-120.3 306.43-174.49c235.67-53.878 384.13-62.805 582.01-175.37 216.24-123.01 248.39-220.83 444.64-313.18 199.03-93.66 289.23-90.88 393.02-119.75 120.53-33.523 234.06-96.602 234.06-96.602l-20.96 1147.4-1951.8-40.149z"
       fill="#b634b7"
       id="path23" />
    <circle
       cx="1659.9"
       cy="-319.58"
       r="516.3"
       fill="#e8e5f0"
       stop-color="#000000"
       stroke-width="1.0725"
       style="paint-order:stroke fill markers"
       id="circle25" />
  </g>
  <g
     id="Base"
     transform="translate(-2737.6123,420)"
     clip-path="url(#clipPath6928)">
    <rect
       x="-49.826"
       y="-1336.7"
       width="1984.1"
       height="3300.1001"
       rx="1"
       ry="1"
       fill="#cfdac2"
       stop-color="#000000"
       style="paint-order:stroke fill markers"
       id="rect28" />
    <path
       d="m -42.401,-326.07 c 0,0 542.55,89.49 763.43,263.66 225.8,178.04 266.7,418.97 458.54,506.4 197.28,89.92 418.25,3.2475 507.71,-13.217 89.463,-16.464 247.06,178.55 247.06,178.55 l 16.699,778.39 -2042.4,130.89 z"
       fill="#708d73"
       id="path30" />
    <path
       d="m -27.581,-5.0304 c 0,0 577.43,123.09 752.62,284.8 175.19,161.71 340.04,541.1 603.08,611.22 263.05,70.119 160.4,360.91 160.4,360.91 l -1190.1,133.02 h -377.58 z"
       fill="#516f53"
       id="path32" />
    <path
       d="m -29.678,340.48 c 0,0 485.87,69.46 721.02,250.2 235.15,180.74 407.47,543.93 407.47,543.93 l -1148.2,-11.271 z"
       fill="#3b533d"
       id="path34" />
    <path
       d="m -112.15,489.69 c 0,0 123.16,152.77 259.56,193.44 151.65,45.208 299.38,89.401 407.9,200.43 90.013,92.089 139.18,392.48 139.18,392.48 l -799.08,-32.477 z"
       fill="#29462c"
       id="path36" />
    <path
       d="m -34.041,1068.5 c 0,0 73.296,-147.49 251,-234.35 221.62,-108.32 410.98,-50.905 652.52,-86.789 501.28,-74.469 528.19,-272.77 757.68,-324.8 169.38,-38.399 397.1,147.53 397.1,147.53 l -1.9761,759.67 -2072.9,-52.575 z"
       fill="#f6872f"
       id="path38" />
    <path
       d="m -24.589,1214 c 0,0 110.06,-170.4 324.92,-224.48 214.85,-54.081 509.61,-50.676 758.38,-156.99 197.55,-84.423 373.25,-276.25 545.09,-295.05 171.84,-18.803 397.25,57.642 397.25,57.642 l -16.524,875.37 -2007.3,100.56 z"
       fill="#ed7529"
       id="path40" />
    <path
       d="m -20.061,1346.6 c 0,0 127.17,-140.3 354.57,-187.37 227.4,-47.07 401.8,-43.221 583.39,-142.36 181.59,-99.14 344.15,-252.13 569.34,-321.14 221.92,-68.002 354.69,-36.663 438.01,-83.875 83.315,-47.212 53.353,567.69 53.353,567.69 l 17.884,557.01 -2039,-171.73 z"
       fill="#dc632f"
       id="path42" />
    <path
       d="m -3.2666,1520.1 c 0,0 69.398,-120.3 306.43,-174.49 235.67,-53.878 384.13,-62.805 582.01,-175.37 216.24,-123.01 248.39,-220.83 444.64,-313.18 199.03,-93.66 294.56,-80.447 398.33,-109.38 115.72,-32.265 227.78,-103.55 227.78,-103.55 l -19.994,1144 -1951.8,-40.149 z"
       fill="#ce5133"
       id="path44" />
    <circle
       cx="1659.9"
       cy="-319.57999"
       r="516.29999"
       fill="#ececec"
       stop-color="#000000"
       stroke-width="1.0725"
       style="paint-order:stroke fill markers"
       id="circle46" />
  </g>
  <g
     id="Dark"
     transform="translate(0,2945.4)"
     clip-path="url(#clipPath6928)">
    <rect
       x="-49.826"
       y="-1336.7"
       width="1984.1"
       height="3300.1"
       rx="1"
       ry="1"
       fill="#514c76"
       stop-color="#000000"
       style="paint-order:stroke fill markers;fill:#3d3857;fill-opacity:1"
       id="rect49" />
    <path
       d="m-42.401-326.07s542.55 89.49 763.43 263.66c225.8 178.04 266.7 418.97 458.54 506.4 197.28 89.92 418.25 3.2475 507.71-13.217 89.463-16.464 247.06 178.55 247.06 178.55l16.699 778.39-2042.4 130.89z"
       fill="#4b3bb9"
       id="path51" />
    <path
       d="m-27.581-5.0304s577.43 123.09 752.62 284.8 340.04 541.1 603.08 611.22c263.05 70.119 160.4 360.91 160.4 360.91l-1190.1 133.02h-377.58z"
       fill="#5843e5"
       id="path53" />
    <path
       d="m-29.678 340.48s485.87 69.46 721.02 250.2 407.47 543.93 407.47 543.93l-1148.2-11.271z"
       fill="#6a55e8"
       id="path55" />
    <path
       d="m-112.15 489.69s123.16 152.77 259.56 193.44c151.65 45.208 299.38 89.401 407.9 200.43 90.013 92.089 139.18 392.48 139.18 392.48l-799.08-32.477z"
       fill="#816ded"
       id="path57" />
    <path
       d="m-34.041 1068.5s73.296-147.49 251-234.35c221.62-108.32 410.98-50.905 652.52-86.789 501.28-74.469 528.19-272.77 757.68-324.8 169.38-38.399 397.1 147.53 397.1 147.53l-1.9761 759.67-2072.9-52.575z"
       fill="#833e84"
       id="path59" />
    <path
       d="m-24.589 1214s110.06-170.4 324.92-224.48c214.85-54.081 509.61-50.676 758.38-156.99 197.55-84.423 373.25-276.25 545.09-295.05 171.84-18.803 397.25 57.642 397.25 57.642l-16.524 875.37-2007.3 100.56z"
       fill="#983e99"
       id="path61" />
    <path
       d="m-20.061 1346.6s127.17-140.3 354.57-187.37 401.8-43.221 583.39-142.36c181.59-99.14 344.15-252.13 569.34-321.14 221.92-68.002 354.69-36.663 438.01-83.875 83.315-47.212 53.353 567.69 53.353 567.69l17.884 557.01-2039-171.73z"
       fill="#b841b9"
       id="path63" />
    <path
       d="m-3.2666 1520.1s69.398-120.3 306.43-174.49c235.67-53.878 384.13-62.805 582.01-175.37 216.24-123.01 248.39-220.83 444.64-313.18 199.03-93.66 289.23-90.88 393.02-119.75 120.53-33.523 234.06-96.602 234.06-96.602l-20.96 1147.4-1951.8-40.149z"
       fill="#cf57d0"
       id="path65" />
    <circle
       cx="1659.9"
       cy="-319.58"
       r="516.3"
       fill="#6c678e"
       stop-color="#000000"
       stroke-width="1.0725"
       style="paint-order:stroke fill markers;fill:#ffffff;fill-opacity:1;opacity:0.05"
       id="circle67" />
  </g>
  <g
     id="Sea-Light"
     transform="translate(2803.5083,420)"
     clip-path="url(#clipPath6928)">
    <rect
       x="-49.826"
       y="-1336.7"
       width="1984.1"
       height="3300.1001"
       rx="1"
       ry="1"
       fill="#d7d4ed"
       stop-color="#000000"
       style="paint-order:stroke fill markers;fill:#ccddff;fill-opacity:1"
       id="rect321" />
    <path
       d="m -42.401,-326.07 c 0,0 542.55,89.49 763.43,263.66 225.8,178.04 266.7,418.97 458.54,506.4 197.28,89.92 418.25,3.2475 507.71,-13.217 89.463,-16.464 247.06,178.55 247.06,178.55 l 16.699,778.39 -2042.4,130.89 z"
       fill="#a496f8"
       id="path323"
       style="fill:#8ab6ff;fill-opacity:1" />
    <path
       d="m -27.581,-5.0304 c 0,0 577.43,123.09 752.62,284.8 175.19,161.71 340.04,541.1 603.08,611.22 263.05,70.119 160.4,360.91 160.4,360.91 l -1190.1,133.02 h -377.58 z"
       fill="#8574f6"
       id="path325"
       style="fill:#5c9bff;fill-opacity:1" />
    <path
       d="m -29.678,340.48 c 0,0 485.87,69.46 721.02,250.2 235.15,180.74 407.47,543.93 407.47,543.93 l -1148.2,-11.271 z"
       fill="#297dff"
       id="path327"
       style="fill:#297dff;fill-opacity:1" />
    <path
       d="m -112.15,489.69 c 0,0 123.16,152.77 259.56,193.44 151.65,45.208 299.38,89.401 407.9,200.43 90.013,92.089 139.18,392.48 139.18,392.48 l -799.08,-32.477 z"
       fill="#563eea"
       id="path329"
       style="fill:#0f6eff;fill-opacity:1" />
    <path
       d="m -34.041,1068.5 c 0,0 73.296,-147.49 251,-234.35 221.62,-108.32 410.98,-50.905 652.52,-86.789 501.28,-74.469 528.19,-272.77 757.68,-324.8 169.38,-38.399 397.1,147.53 397.1,147.53 l -1.9761,759.67 -2072.9,-52.575 z"
       fill="#e16fe2"
       id="path331"
       style="fill:#3fcfc1;fill-opacity:1" />
    <path
       d="m -24.589,1214 c 0,0 110.06,-170.4 324.92,-224.48 214.85,-54.081 509.61,-50.676 758.38,-156.99 197.55,-84.423 373.25,-276.25 545.09,-295.05 171.84,-18.803 397.25,57.642 397.25,57.642 l -16.524,875.37 -2007.3,100.56 z"
       fill="#31c4b6"
       id="path333" />
    <path
       d="m -20.061,1346.6 c 0,0 127.17,-140.3 354.57,-187.37 227.4,-47.07 401.8,-43.221 583.39,-142.36 181.59,-99.14 344.15,-252.13 569.34,-321.14 221.92,-68.002 354.69,-36.663 438.01,-83.875 83.315,-47.212 53.353,567.69 53.353,567.69 l 17.884,557.01 -2039,-171.73 z"
       fill="#c13dc2"
       id="path335"
       style="fill:#2eb7aa;fill-opacity:1" />
    <path
       d="m -3.2666,1520.1 c 0,0 69.398,-120.3 306.43,-174.49 235.67,-53.878 384.13,-62.805 582.01,-175.37 216.24,-123.01 248.39,-220.83 444.64,-313.18 199.03,-93.66 289.23,-90.88 393.02,-119.75 120.53,-33.523 234.06,-96.602 234.06,-96.602 l -20.96,1147.4 -1951.8,-40.149 z"
       fill="#b634b7"
       id="path337"
       style="fill:#2aa79a;fill-opacity:1" />
    <circle
       cx="1659.9"
       cy="-319.57999"
       r="516.29999"
       fill="#e8e5f0"
       stop-color="#000000"
       stroke-width="1.0725"
       style="paint-order:stroke fill markers;fill:#ffffff;fill-opacity:1;opacity:0.5"
       id="circle339" />
  </g>
  <g
     id="Sea-Dark"
     transform="translate(2803.5083,2945.4)"
     clip-path="url(#clipPath6928)">
    <rect
       x="-49.826"
       y="-1336.7"
       width="1984.1"
       height="3300.1001"
       rx="1"
       ry="1"
       fill="#514c76"
       stop-color="#000000"
       style="fill:#384557;fill-opacity:1;paint-order:stroke fill markers"
       id="rect343" />
    <path
       d="m -42.401,-326.07 c 0,0 542.55,89.49 763.43,263.66 225.8,178.04 266.7,418.97 458.54,506.4 197.28,89.92 418.25,3.2475 507.71,-13.217 89.463,-16.464 247.06,178.55 247.06,178.55 l 16.699,778.39 -2042.4,130.89 z"
       fill="#4b3bb9"
       id="path345"
       style="fill:#004fc7;fill-opacity:1" />
    <path
       d="m -27.581,-5.0304 c 0,0 577.43,123.09 752.62,284.8 175.19,161.71 340.04,541.1 603.08,611.22 263.05,70.119 160.4,360.91 160.4,360.91 l -1190.1,133.02 h -377.58 z"
       fill="#5843e5"
       id="path347"
       style="fill:#0063fa;fill-opacity:1" />
    <path
       d="m -29.678,340.48 c 0,0 485.87,69.46 721.02,250.2 235.15,180.74 407.47,543.93 407.47,543.93 l -1148.2,-11.271 z"
       fill="#6a55e8"
       id="path349"
       style="fill:#297dff;fill-opacity:1" />
    <path
       d="m -112.15,489.69 c 0,0 123.16,152.77 259.56,193.44 151.65,45.208 299.38,89.401 407.9,200.43 90.013,92.089 139.18,392.48 139.18,392.48 l -799.08,-32.477 z"
       fill="#816ded"
       id="path351"
       style="fill:#428cff;fill-opacity:1" />
    <path
       d="m -34.041,1068.5 c 0,0 73.296,-147.49 251,-234.35 221.62,-108.32 410.98,-50.905 652.52,-86.789 501.28,-74.469 528.19,-272.77 757.68,-324.8 169.38,-38.399 397.1,147.53 397.1,147.53 l -1.9761,759.67 -2072.9,-52.575 z"
       fill="#833e84"
       id="path353"
       style="fill:#248f82;fill-opacity:1" />
    <path
       d="m -24.589,1214 c 0,0 110.06,-170.4 324.92,-224.48 214.85,-54.081 509.61,-50.676 758.38,-156.99 197.55,-84.423 373.25,-276.25 545.09,-295.05 171.84,-18.803 397.25,57.642 397.25,57.642 l -16.524,875.37 -2007.3,100.56 z"
       fill="#983e99"
       id="path355"
       style="fill:#29a396;fill-opacity:1" />
    <path
       d="m -20.061,1346.6 c 0,0 127.17,-140.3 354.57,-187.37 227.4,-47.07 401.8,-43.221 583.39,-142.36 181.59,-99.14 344.15,-252.13 569.34,-321.14 221.92,-68.002 354.69,-36.663 438.01,-83.875 83.315,-47.212 53.353,567.69 53.353,567.69 l 17.884,557.01 -2039,-171.73 z"
       fill="#b841b9"
       id="path357"
       style="fill:#2db4a6;fill-opacity:1" />
    <path
       d="m -3.2666,1520.1 c 0,0 69.398,-120.3 306.43,-174.49 235.67,-53.878 384.13,-62.805 582.01,-175.37 216.24,-123.01 248.39,-220.83 444.64,-313.18 199.03,-93.66 289.23,-90.88 393.02,-119.75 120.53,-33.523 234.06,-96.602 234.06,-96.602 l -20.96,1147.4 -1951.8,-40.149 z"
       fill="#cf57d0"
       id="path359"
       style="fill:#31c4b6;fill-opacity:1" />
    <circle
       cx="1659.9"
       cy="-319.57999"
       r="516.29999"
       fill="#6c678e"
       stop-color="#000000"
       stroke-width="1.0725"
       style="opacity:0.05;fill:#ffffff;fill-opacity:1;paint-order:stroke fill markers"
       id="circle361" />
  </g>
</svg>
